<svg width="200" height="200" viewBox="0 0 200 200" xmlns="http://www.w3.org/2000/svg">
  <defs>
    <linearGradient id="crossGradient" x1="0%" y1="0%" x2="100%" y2="100%">
      <stop offset="0%" style="stop-color:#C49B2A;stop-opacity:1" />
      <stop offset="100%" style="stop-color:#B87333;stop-opacity:1" />
    </linearGradient>
  </defs>
  
  <!-- Background -->
  <rect width="200" height="200" fill="#F8F5F0"/>
  
  <!-- Georgian Cross -->
  <g transform="translate(100, 100)">
    <!-- Main Cross -->
    <rect x="-20" y="-4" width="40" height="8" fill="url(#crossGradient)"/>
    <rect x="-4" y="-20" width="8" height="40" fill="url(#crossGradient)"/>
    
    <!-- Decorative Elements -->
    <circle cx="0" cy="0" r="25" fill="none" stroke="#1B4D1B" stroke-width="2"/>
    <circle cx="0" cy="0" r="15" fill="none" stroke="#5A1A7A" stroke-width="1"/>
    
    <!-- Corner Decorations -->
    <g transform="translate(-30, -30)">
      <path d="M0,0 L10,5 L5,10 Z" fill="#1B4D1B" opacity="0.6"/>
    </g>
    <g transform="translate(30, -30) rotate(90)">
      <path d="M0,0 L10,5 L5,10 Z" fill="#1B4D1B" opacity="0.6"/>
    </g>
    <g transform="translate(30, 30) rotate(180)">
      <path d="M0,0 L10,5 L5,10 Z" fill="#1B4D1B" opacity="0.6"/>
    </g>
    <g transform="translate(-30, 30) rotate(270)">
      <path d="M0,0 L10,5 L5,10 Z" fill="#1B4D1B" opacity="0.6"/>
    </g>
  </g>
  
  <!-- Border Pattern -->
  <rect x="10" y="10" width="180" height="180" fill="none" stroke="#C49B2A" stroke-width="2"/>
  <rect x="20" y="20" width="160" height="160" fill="none" stroke="#1B4D1B" stroke-width="1"/>
</svg>
