<svg width="400" height="100" viewBox="0 0 400 100" xmlns="http://www.w3.org/2000/svg">
  <defs>
    <pattern id="borderPattern" x="0" y="0" width="40" height="40" patternUnits="userSpaceOnUse">
      <path d="M20,5 L35,20 L20,35 L5,20 Z" fill="#C49B2A" opacity="0.6"/>
      <circle cx="20" cy="20" r="3" fill="#1B4D1B" opacity="0.4"/>
    </pattern>
  </defs>
  
  <!-- Background -->
  <rect width="400" height="100" fill="#F8F5F0"/>
  
  <!-- Main Border -->
  <rect x="20" y="20" width="360" height="60" fill="url(#borderPattern)"/>
  
  <!-- Inner Border -->
  <rect x="30" y="30" width="340" height="40" fill="none" stroke="#5A1A7A" stroke-width="2"/>
  
  <!-- Corner Decorations -->
  <g transform="translate(30, 30)">
    <path d="M0,0 L15,0 L15,15 L0,15 Z" fill="#B87333" opacity="0.8"/>
    <circle cx="7.5" cy="7.5" r="3" fill="#C49B2A"/>
  </g>
  
  <g transform="translate(355, 30)">
    <path d="M0,0 L15,0 L15,15 L0,15 Z" fill="#B87333" opacity="0.8"/>
    <circle cx="7.5" cy="7.5" r="3" fill="#C49B2A"/>
  </g>
  
  <g transform="translate(30, 55)">
    <path d="M0,0 L15,0 L15,15 L0,15 Z" fill="#B87333" opacity="0.8"/>
    <circle cx="7.5" cy="7.5" r="3" fill="#C49B2A"/>
  </g>
  
  <g transform="translate(355, 55)">
    <path d="M0,0 L15,0 L15,15 L0,15 Z" fill="#B87333" opacity="0.8"/>
    <circle cx="7.5" cy="7.5" r="3" fill="#C49B2A"/>
  </g>
  
  <!-- Central Motif -->
  <g transform="translate(200, 50)">
    <circle cx="0" cy="0" r="15" fill="none" stroke="#1B4D1B" stroke-width="2"/>
    <path d="M-10,-5 L10,5 M10,-5 L-10,5" stroke="#C49B2A" stroke-width="2"/>
  </g>
</svg>
